<mxfile host="app.diagrams.net" modified="2024-03-04T16:11:11.129Z" agent="Mozilla/5.0 (Windows NT 10.0; Win64; x64) AppleWebKit/537.36 (KHTML, like Gecko) Chrome/122.0.0.0 Safari/537.36" etag="7nSAJ1JuO57SobgxveRl" version="24.0.1" type="github">
  <diagram name="Page-1" id="v1raXExcZoV9B4vmxljY">
    <mxGraphModel dx="1290" dy="522" grid="1" gridSize="10" guides="1" tooltips="1" connect="1" arrows="1" fold="1" page="1" pageScale="1" pageWidth="850" pageHeight="1100" math="0" shadow="0">
      <root>
        <mxCell id="0" />
        <mxCell id="1" parent="0" />
        <mxCell id="gRyMv-x38ussXGorKPDM-1" value="" style="rounded=0;whiteSpace=wrap;html=1;" vertex="1" parent="1">
          <mxGeometry x="80" y="15" width="680" height="380" as="geometry" />
        </mxCell>
        <mxCell id="gRyMv-x38ussXGorKPDM-2" value="Player" style="ellipse;whiteSpace=wrap;html=1;" vertex="1" parent="1">
          <mxGeometry x="380" y="140" width="140" height="70" as="geometry" />
        </mxCell>
        <mxCell id="gRyMv-x38ussXGorKPDM-3" value="Board" style="ellipse;whiteSpace=wrap;html=1;" vertex="1" parent="1">
          <mxGeometry x="300" y="50" width="140" height="70" as="geometry" />
        </mxCell>
        <mxCell id="gRyMv-x38ussXGorKPDM-4" value="Game" style="ellipse;whiteSpace=wrap;html=1;" vertex="1" parent="1">
          <mxGeometry x="120" y="60" width="140" height="70" as="geometry" />
        </mxCell>
        <mxCell id="gRyMv-x38ussXGorKPDM-5" value="Human" style="ellipse;whiteSpace=wrap;html=1;" vertex="1" parent="1">
          <mxGeometry x="300" y="250" width="140" height="70" as="geometry" />
        </mxCell>
        <mxCell id="gRyMv-x38ussXGorKPDM-6" value="Bot" style="ellipse;whiteSpace=wrap;html=1;" vertex="1" parent="1">
          <mxGeometry x="480" y="240" width="140" height="70" as="geometry" />
        </mxCell>
      </root>
    </mxGraphModel>
  </diagram>
</mxfile>
